<svg xmlns="http://www.w3.org/2000/svg" xmlns:xlink="http://www.w3.org/1999/xlink" viewBox="400 530 700 430" preserveAspectRatio="xMidYMid meet">
  <defs>
    <clipPath id="c1">
      <path d="M 631 553.515625 L 1068.554688 553.515625 L 1068.554688 946.515625 L 631 946.515625 Z" clip-rule="nonzero"/>
    </clipPath>
    <clipPath id="c2">
      <path d="M 531 553.515625 L 868 553.515625 L 868 879 L 531 879 Z" clip-rule="nonzero"/>
    </clipPath>
    <clipPath id="c3">
      <path d="M 432 553.515625 L 666 553.515625 L 666 753 L 432 753 Z" clip-rule="nonzero"/>
    </clipPath>
  </defs>
  <g clip-path="url(#c1)">
    <path fill="#006064" fill-rule="evenodd" d="M 1068.222656 553.527344 L 821.601562 861.457031 L 821.558594 861.457031 C 792.167969 892.925781 868.980469 943.808594 900.15625 946.351562 L 753.480469 946.515625 L 695.242188 946.515625 C 667.484375 946.515625 648.714844 935.070312 631.210938 911.101562 L 670.921875 861.457031 L 868.226562 616.003906 C 897.097656 580.085938 918.726562 553.71875 966 553.65625 L 1068.222656 553.527344"/>
  </g>
  <g clip-path="url(#c2)">
    <path fill="#00838f" fill-rule="evenodd" d="M 867.105469 553.523438 L 605.902344 878.75 L 605.796875 878.878906 L 531.363281 784.183594 L 531.507812 784.003906 L 667.109375 616 C 696.054688 580.144531 717.609375 553.714844 764.882812 553.65625 L 867.105469 553.523438"/>
  </g>
  <g clip-path="url(#c3)">
    <path fill="#0097a7" fill-rule="evenodd" d="M 665.988281 553.523438 L 506.480469 752.128906 L 506.324219 752.324219 L 432.140625 657.945312 L 432.335938 657.699219 L 465.992188 616 C 494.9375 580.144531 516.492188 553.714844 563.765625 553.65625 L 665.988281 553.523438"/>
  </g>
</svg>
